<?xml version="1.0" standalone="no"?>
<!DOCTYPE svg PUBLIC "-//W3C//DTD SVG 20010904//EN"
 "http://www.w3.org/TR/2001/REC-SVG-20010904/DTD/svg10.dtd">
<svg version="1.0" xmlns="http://www.w3.org/2000/svg"
 width="373.000000pt" height="143.000000pt" viewBox="0 0 373.000000 143.000000"
 preserveAspectRatio="xMidYMid meet">

<g transform="translate(0.000000,143.000000) scale(0.100000,-0.100000)"
fill="#000000" stroke="none">
<path d="M0 729 c0 -557 3 -699 13 -693 6 5 93 74 192 154 99 80 477 384 840
674 363 291 669 537 680 547 19 19 -3 19 -853 19 l-872 0 0 -701z"/>
<path d="M904 734 c-478 -383 -878 -704 -889 -715 -19 -18 12 -19 1848 -19
l1867 0 0 49 0 48 -436 374 c-240 206 -442 375 -450 377 -8 2 -52 -17 -98 -42
l-84 -46 -441 335 c-243 184 -443 335 -445 335 -2 0 -394 -313 -872 -696z
m1298 225 c222 -160 410 -298 418 -307 8 -9 -1 -4 -20 9 -368 265 -797 574
-804 580 -6 5 -7 9 -3 9 3 0 187 -131 409 -291z m-405 199 c-2 -13 -4 -3 -4
22 0 25 2 35 4 23 2 -13 2 -33 0 -45z m10 -105 c-3 -10 -5 -2 -5 17 0 19 2 27
5 18 2 -10 2 -26 0 -35z m10 -100 c-3 -10 -5 -2 -5 17 0 19 2 27 5 18 2 -10 2
-26 0 -35z m-20 -75 c-3 -8 -6 -5 -6 6 -1 11 2 17 5 13 3 -3 4 -12 1 -19z m80
-218 c82 -89 205 -223 322 -353 14 -15 22 -27 19 -27 -15 0 -453 484 -455 503
-3 21 -2 21 6 2 5 -11 53 -67 108 -125z m1379 -216 c211 -162 384 -298 384
-300 0 -3 -66 46 -147 107 -258 197 -537 411 -572 440 -19 16 -36 27 -38 26
-1 -2 29 -74 68 -161 39 -87 69 -160 67 -162 -2 -2 -37 72 -78 164 -40 92 -75
170 -77 175 -2 4 -1 7 2 7 3 0 179 -133 391 -296z m-1383 51 c114 -80 207
-149 207 -152 0 -3 -6 -1 -12 4 -7 6 -104 74 -216 153 l-203 142 -62 -43 c-34
-23 -90 -62 -124 -87 -35 -24 -63 -41 -63 -39 0 11 245 177 255 173 6 -2 104
-70 218 -151z m827 99 c0 -3 -13 4 -30 16 -16 12 -30 24 -30 26 0 3 14 -4 30
-16 17 -12 30 -24 30 -26z m108 -78 c3 -5 -16 6 -42 24 -26 19 -50 39 -54 44
-3 5 16 -6 42 -24 26 -19 50 -39 54 -44z m-1578 -13 c-4 -41 -5 -43 -8 -15 -2
17 -6 32 -8 32 -7 0 -71 -43 -230 -157 -72 -51 -135 -93 -139 -93 -4 0 81 63
190 140 109 77 199 140 199 140 1 0 -1 -21 -4 -47z m1650 -39 c0 -3 -13 4 -30
16 -16 12 -30 24 -30 26 0 3 14 -4 30 -16 17 -12 30 -24 30 -26z m-1490 2 c0
-3 -15 -14 -32 -26 l-33 -22 30 26 c31 27 35 29 35 22z m-173 -63 c-3 -10 -5
-2 -5 17 0 19 2 27 5 18 2 -10 2 -26 0 -35z m1724 20 c13 -16 12 -17 -3 -4
-17 13 -22 21 -14 21 2 0 10 -8 17 -17z m-791 -129 c0 -3 -13 4 -30 16 -16 12
-30 24 -30 26 0 3 14 -4 30 -16 17 -12 30 -24 30 -26z m1521 -171 c13 -16 12
-17 -3 -4 -10 7 -18 15 -18 17 0 8 8 3 21 -13z"/>
<path d="M1820 1416 c8 -7 195 -149 415 -316 220 -167 406 -307 413 -313 9 -7
38 3 102 37 54 28 95 44 102 40 17 -10 608 -517 761 -652 l117 -103 0 660 0
661 -962 0 c-810 0 -960 -2 -948 -14z"/>
</g>
</svg>
